HIERARCHY
ROOT Hips
{
  OFFSET -215.094 107.374 -232.209
  CHANNELS 6 Xposition Yposition Zposition Zrotation Xrotation Yrotation
  JOINT ToSpine
  {
    OFFSET -2.69724 7.43032 -0.144315
    CHANNELS 3 Zrotation Xrotation Yrotation
    JOINT Spine
    {
      OFFSET -0.0310711 10.7595 1.96963
      CHANNELS 3 Zrotation Xrotation Yrotation
      JOINT Spine1
      {
        OFFSET 13.1342 3.43533 0.764692
        CHANNELS 3 Zrotation Xrotation Yrotation
        JOINT Neck
        {
          OFFSET 29.8703 7.82586 -0.130764
          CHANNELS 3 Zrotation Xrotation Yrotation
          JOINT Head
          {
            OFFSET 9.52751 0.295786 -0.907742
            CHANNELS 3 Zrotation Xrotation Yrotation
            End Site
            {
              OFFSET 16.4037 0.713936 2.7358
            }
          }
        }
        JOINT LeftShoulder
        {
          OFFSET 27.5574 4.95586 2.47156
          CHANNELS 3 Zrotation Xrotation Yrotation
          JOINT LeftArm
          {
            OFFSET 1.20734 -0.998971 20.1238
            CHANNELS 3 Zrotation Xrotation Yrotation
            JOINT LeftForeArm
            {
              OFFSET 26.8049 -0.0536703 -0.155908
              CHANNELS 3 Zrotation Xrotation Yrotation
              JOINT LeftHand
              {
                OFFSET 26.6817 0 0.320147
                CHANNELS 3 Zrotation Xrotation Yrotation
                End Site
                {
                  OFFSET 18.6119 0 0.382219
                }
              }
            }
          }
        }
        JOINT RightShoulder
        {
          OFFSET 27.5927 4.71444 -2.65209
          CHANNELS 3 Zrotation Xrotation Yrotation
          JOINT RightArm
          {
            OFFSET 2.83739 -1.17114 -18.7564
            CHANNELS 3 Zrotation Xrotation Yrotation
            JOINT RightForeArm
            {
              OFFSET 28.839 -0.0548439 1.22491
              CHANNELS 3 Zrotation Xrotation Yrotation
              JOINT RightHand
              {
                OFFSET 26.5114 0 -0.101894
                CHANNELS 3 Zrotation Xrotation Yrotation
                End Site
                {
                  OFFSET 18.2168 0 0
                }
              }
            }
          }
        }
      }
    }
  }
  JOINT LeftUpLeg
  {
    OFFSET -4.76168 -1.9167 -10.2353
    CHANNELS 3 Zrotation Xrotation Yrotation
    JOINT LeftLeg
    {
      OFFSET 2.55951 -42.0585 -8.02213
      CHANNELS 3 Zrotation Xrotation Yrotation
      JOINT LeftFoot
      {
        OFFSET 3.16357 -42.5282 -3.95426
        CHANNELS 3 Zrotation Xrotation Yrotation
        JOINT LeftToeBase
        {
          OFFSET 0.346054 -6.02161 12.8035
          CHANNELS 3 Zrotation Xrotation Yrotation
          End Site
          {
            OFFSET 0.134235 -1.35082 5.13018
          }
        }
      }
    }
  }
  JOINT RightUpLeg
  {
    OFFSET -4.94151 -1.41743 10.6446
    CHANNELS 3 Zrotation Xrotation Yrotation
    JOINT RightLeg
    {
      OFFSET -2.56294 -42.0364 -7.94377
      CHANNELS 3 Zrotation Xrotation Yrotation
      JOINT RightFoot
      {
        OFFSET -3.0952 -42.555 -4.02241
        CHANNELS 3 Zrotation Xrotation Yrotation
        JOINT RightToeBase
        {
          OFFSET -0.0828122 -6.13587 12.8035
          CHANNELS 3 Zrotation Xrotation Yrotation
          End Site
          {
            OFFSET -0.131328 -1.35082 5.13018
          }
        }
      }
    }
  }
}
MOTION
Frames:	13
Frame Time:	0.0333333
-215.094 107.374 -232.209 67.9755 -46.3111 -21.6505 -70.1915 0 88.8779 129.039 71.9046 -41.0898 -6.28801 27.4712 -1.7977 -154.972 22.2532 179.188 -162.569 61.8497 -168.512 0.576301 -12.9795 -27.0208 -88.8982 56.0237 -42.6745 12.4444 38.7522 -26.3856 0.420957 0.000575251 0.35866 -1.54618 7.19346 35.9025 -74.0862 -30.5909 102.463 15.1582 2.86039 100.145 0.58676 0.000330719 0.0646653 -13.8609 4.24879 98.3695 -4.71944 53.4137 -8.75911 -3.43744 0.112502 0.365956 2.40529 -7.78196 10.0434 -57.6382 3.59563 82.2271 1.01814 18.8105 11.3779 -0.689303 14.666 -0.794472 0.670202 -5.72537 0.0946232 
-209.871 105.162 -228.439 66.9293 -47.538 -22.7607 -70.1915 0 88.8779 127.08 72.5551 -39.1938 -5.25654 27.5107 -1.94545 -155.778 21.8336 179.681 -162.65 61.4459 -168.726 0.596973 -12.8694 -26.9336 -85.2698 58.8384 -44.7414 12.2273 35.9123 -26.8799 0.420957 0.000575251 0.35866 -1.49242 6.92448 36.0289 -73.8521 -29.7609 102.915 15.4532 3.28755 101.42 0.58676 0.000330719 0.0646653 -14.9371 3.67492 97.3567 -3.75916 46.4526 -10.5533 -1.6002 -0.961896 0.0278381 3.7616 -10.4163 12.0343 -56.1397 3.61672 82.1652 1.34031 19.6567 7.24992 -1.14215 13.0162 -0.570112 1.24814 -10.3233 -0.00385422 
-204.6 101.961 -224.486 65.7637 -47.6475 -25.4486 -70.1915 0 88.8779 120.081 73.871 -34.8291 -4.19017 27.2669 -1.27682 -155.569 21.3878 179.513 -162.143 60.9781 -168.911 0.604312 -12.8232 -26.9497 -79.0723 61.6737 -49.3096 11.8239 31.7552 -27.4201 0.420957 0.000575251 0.35866 -1.5653 6.85752 37.3231 -74.6241 -28.4169 101.632 14.3604 3.41727 102.791 0.58676 0.000330719 0.0646653 -15.2236 2.18584 97.5297 -3.1887 40.8719 -11.2943 -0.691466 -2.51736 -0.213022 4.19423 -11.0021 11.2194 -53.8768 1.27946 81.4626 1.54964 23.407 2.2425 -1.32501 11.353 -0.418879 0.999733 -11.8631 7.3511 
-199.71 97.9959 -220.64 66.0145 -48.3019 -25.714 -70.1915 0 88.8779 120.891 73.8439 -37.375 -4.81634 26.8533 0.304286 -155.192 21.1036 179.541 -162.123 60.717 -167.91 0.543296 -13.0405 -27.8885 -71.7235 63.1632 -55.4012 11.1983 27.5864 -27.8084 0.420957 0.000575251 0.35866 -1.64385 6.75415 38.8548 -75.5164 -27.0885 100.398 15.5835 3.92787 103.486 0.58676 0.000330719 0.0646653 -15.7499 1.80594 96.1943 -2.85945 36.6933 -11.8738 -2.14624 -3.2245 -0.125854 4.06136 -11.1582 13.8149 -52.4208 1.12189 82.6877 1.57648 35.6687 1.62942 -2.60594 -5.22026 0.770116 1.03114 -7.32889 -1.54142 
-194.824 93.3919 -217.262 66.6092 -49.9764 -26.0094 -70.1915 0 88.8779 125.451 72.8787 -42.5639 -4.66881 27.0907 -0.215005 -157.532 20.6535 179.844 -162.462 60.361 -168.184 0.682257 -12.0683 -29.7412 -74.0092 59.8778 -54.9482 10.6086 28.5178 -27.1736 0.420957 0.000575251 0.35866 -1.75017 6.65364 40.8183 -75.2745 -25.5734 100.589 16.0209 3.6716 102.269 0.58676 0.000330719 0.0646653 -15.5305 2.00243 94.9618 -2.53573 35.0758 -9.70393 -2.98024 -4.21124 -0.144842 4.36056 -11.6408 13.9252 -52.2818 2.14007 87.765 1.19542 47.0602 -7.5736 -7.292 -19.0576 1.37116 0.92707 -10.7288 5.30298 
-189.413 90.3462 -213.2 65.2726 -51.8165 -24.6727 -70.1915 0 88.8779 126.221 73.1077 -39.7649 -3.04884 27.2662 -1.09462 -160.539 20.1475 -178.814 -163.431 60.0063 -168.838 0.879147 -10.9673 -31.7974 -90.9452 51.0226 -45.5078 10.8853 38.8672 -24.8023 0.420957 0.000575251 0.35866 -1.93229 6.99865 42.0294 -73.9086 -25.5605 100.774 14.353 2.37599 98.916 0.58676 0.000330719 0.0646653 -15.4882 4.71256 93.6063 -2.48433 33.0111 -10.7174 -2.01908 -4.62403 -0.273703 4.91504 -12.6041 14.8293 -56.5712 5.2281 90.0933 3.0555 49.6487 2.0315 -6.41581 -30.5479 1.6828 3.85988 -4.65361 -27.0992 
-183.631 88.6308 -208.676 64.4399 -52.4745 -23.8295 -70.1915 0 88.8779 125.593 73.4916 -36.7964 -2.86435 27.4987 -2.05275 -159.895 19.9862 -178.908 -163.67 59.8195 -168.585 1.0541 -10.1386 -32.5922 -98.7873 46.9286 -43.3768 12.1176 42.223 -23.6651 0.420957 0.000575251 0.35866 -2.17627 7.16971 44.674 -72.9155 -26.1916 98.1026 14.2691 1.10939 94.1035 0.58676 0.000330719 0.0646653 -16.6964 5.64321 92.7619 -2.0035 29.8375 -7.43926 0.422033 -5.14666 -0.529668 5.74502 -13.441 10.1407 -62.1897 5.51442 89.7972 1.91164 47.6894 -3.79967 -5.74942 -32.9993 1.86034 2.3093 -7.96903 -14.512 
-177.623 87.7159 -203.63 63.4344 -51.1248 -24.3107 -70.1915 0 88.8779 114.818 74.9705 -27.0311 -1.97091 27.2112 -1.42177 -158.537 20.3048 179.764 -163.954 60.0623 -168.658 1.07539 -10.0425 -32.879 -98.7691 48.2119 -45.3823 11.3265 34.6788 -24.5526 0.420957 0.000575251 0.35866 -2.11654 6.69309 45.9678 -70.9551 -28.2336 95.635 14.9395 -0.716014 87.123 0.58676 0.000330719 0.0646653 -16.7505 5.04597 94.7746 -2.18542 30.0863 -6.9719 -1.19716 -7.44615 -0.600257 4.8 -12.2464 13.2526 -67.5366 4.79848 91.4525 2.3597 45.5498 0.816349 -4.65338 -30.9822 1.96367 2.62311 -14.6481 -24.6658 
-171.051 87.5372 -198.319 60.6238 -49.7947 -25.4522 -70.1915 0 88.8779 101.951 76.1617 -13.5102 -1.62054 27.3148 -1.56073 -158.943 20.6218 177.955 -163.818 60.3314 -170.31 1.18894 -9.51652 -32.5043 -94.1355 50.5915 -51.4685 9.24235 24.823 -25.6564 0.420957 0.000575251 0.35866 -1.89231 6.14814 45.2545 -70.3412 -32.6005 93.1354 18.5202 -3.69851 78.9504 0.58676 0.000330719 0.0646653 -16.8723 4.52849 95.9482 -2.07218 31.4397 -5.96797 0.278417 -7.95396 -0.73378 5.46785 -13.3829 14.162 -72.3259 2.64137 89.2232 1.80203 40.8852 -0.150278 -5.66322 -21.4572 1.50797 2.45066 -24.396 -10.7744 
-164.388 87.1947 -193.186 56.9291 -50.0467 -28.2837 -70.1915 0 88.8779 90.4229 77.2871 -1.32844 -1.59364 28.394 -2.1633 -159.951 20.9761 176.995 -164.738 60.6924 -171.519 1.27913 -9.11462 -32.8276 -85.2286 52.7852 -60.8338 8.34404 15.583 -28.8825 0.420957 0.000575251 0.35866 -1.80898 6.08175 44.2789 -69.9712 -36.5607 90.5522 20.153 -8.05603 68.9946 0.58676 0.000330719 0.0646653 -17.1057 5.96143 99.7801 -2.37439 36.4539 -7.2172 -1.86479 -8.74409 -0.682623 4.32454 -11.0092 9.78126 -74.5226 0.581209 90.3907 1.98337 40.4953 1.6453 -4.1037 -10.6609 1.12845 3.7453 -32.9574 -3.58211 
-158.023 87.5157 -188.574 52.5965 -49.9034 -32.3653 -70.1915 0 88.8779 79.5808 77.5407 9.14055 -2.43031 29.0975 -2.48128 -160.909 21.0418 176.416 -166.513 60.8303 -171.024 1.27568 -9.18508 -34.127 -86.4052 50.2156 -62.7803 8.9398 14.0527 -32.5877 0.420957 0.000575251 0.35866 -1.80687 6.05918 44.3564 -67.9625 -38.0389 90.0034 17.2898 -11.6668 56.947 0.58676 0.000330719 0.0646653 -14.8929 6.12261 100.766 -3.19742 42.7923 -9.58778 -0.845337 3.24726 0.29507 7.5744 -16.5209 11.8462 -72.0861 -1.98216 91.976 2.30488 44.9968 1.17237 1.70114 -2.06909 0.112649 3.31547 -25.7627 0.906561 
-152.418 86.8027 -184.211 55.3046 -48.3777 -29.0485 -70.1915 0 88.8779 88.2836 76.3263 -2.30887 -4.40748 26.8809 0.195501 -161.241 21.0972 176.345 -166.959 60.9308 -169.607 0.804158 -11.1314 -36.3357 -88.8467 46.4768 -66.0945 10.5175 15.4362 -34.5062 0.420957 0.000575251 0.35866 -2.01978 6.6458 44.7946 -63.9209 -37.5989 93.0597 10.3034 -11.4195 42.6474 0.58676 0.000330719 0.0646653 -13.7232 5.104 101.005 -4.33013 53.6786 -5.78683 3.40345 -4.68135 -0.756724 0.601849 -1.14171 -0.48637 -68.7784 -0.331006 93.4717 4.07351 57.693 -0.316347 -1.4178 7.18286 -0.131946 2.26922 -18.575 -12.2785 
-147.515 87.3589 -179.966 60.5893 -45.9082 -25.1307 -70.1915 0 88.8779 95.6184 74.7169 -15.0333 -5.47086 24.5436 3.00489 -158.783 21.2239 173.753 -163.189 60.857 -171.62 0.088805 -13.9109 -36.5364 -84.2851 43.6462 -75.67 8.05864 12.3932 -33.1016 0.420957 0.000575251 0.35866 -2.08128 6.53611 46.2023 -60.3211 -36.1673 93.6152 6.06456 -9.55865 32.8627 0.58676 0.000330719 0.0646653 -18.1771 0.543556 100.294 -5.01227 56.8304 -5.49618 5.89487 -7.10417 -1.04239 -0.113108 -0.145727 0.86987 -64.577 0.190692 93.0396 7.88234 71.0552 -7.52564 1.97672 9.41654 -0.990897 2.16871 -8.83708 -12.904 
